grf
version=1
nRows=46
nColumns=28
inDegrees=yes
endheader
time	ground_force_1_vx	ground_force_1_vy	ground_force_1_vz	ground_force_1_px	ground_force_1_py	ground_force_1_pz	ground_moment_1_mx	ground_moment_1_my	ground_moment_1_mz	ground_force_2_vx	ground_force_2_vy	ground_force_2_vz	ground_force_2_px	ground_force_2_py	ground_force_2_pz	ground_moment_2_mx	ground_moment_2_my	ground_moment_2_mz	ground_force_3_vx	ground_force_3_vy	ground_force_3_vz	ground_force_3_px	ground_force_3_py	ground_force_3_pz	ground_moment_3_mx	ground_moment_3_my	ground_moment_3_mz
2.602500	0.000000	0.000000	0.000000	-0.345058	0.000000	-0.418215	0.000000	0.000000	0.000000	0.000000	0.000000	0.000000	-1.230862	0.000000	-0.019801	0.000000	0.000000	0.000000	0.000000	0.000000	0.000000	1.119561	0.000000	-0.499158	0.000000	0.000000	0.000000
2.603333	0.000000	0.000000	0.000000	0.373806	0.000000	-0.212005	0.000000	0.000000	0.000000	0.000000	0.000000	0.000000	0.348072	0.000000	-0.289253	0.000000	0.000000	0.000000	0.000000	0.000000	0.000000	0.760887	0.000000	-0.423291	0.000000	0.000000	0.000000
2.604167	0.000000	0.000000	0.000000	0.220779	0.000000	-0.307157	0.000000	0.000000	0.000000	0.000000	0.000000	0.000000	0.312328	0.000000	-0.042949	0.000000	0.000000	0.000000	0.000000	0.000000	0.000000	0.570684	-0.000000	0.021721	0.000000	0.000000	0.000000
2.605000	0.000000	0.000000	0.000000	-0.314380	0.000000	-0.531200	0.000000	0.000000	0.000000	0.000000	0.000000	0.000000	0.062283	0.000000	-0.537881	0.000000	0.000000	0.000000	0.000000	0.000000	0.000000	1.062081	0.000000	-0.632633	0.000000	0.000000	0.000000
2.605833	0.000000	0.000000	0.000000	0.399817	-0.000000	0.065013	0.000000	0.000000	0.000000	0.000000	0.000000	0.000000	0.254260	0.000000	-0.340865	0.000000	0.000000	0.000000	0.000000	0.000000	0.000000	1.008271	0.000000	-0.278488	0.000000	0.000000	0.000000
2.606667	0.000000	0.000000	0.000000	-0.344432	0.000000	-0.477289	0.000000	0.000000	0.000000	0.000000	0.000000	0.000000	1.926909	-0.000000	0.680612	0.000000	0.000000	0.000000	0.000000	0.000000	0.000000	1.170437	0.000000	-0.675254	0.000000	0.000000	0.000000
2.607500	0.000000	0.000000	0.000000	-0.358697	0.000000	-0.490469	0.000000	0.000000	0.000000	0.000000	0.000000	0.000000	0.262043	0.000000	-0.244984	0.000000	0.000000	0.000000	0.000000	0.000000	0.000000	0.944828	0.000000	-0.394501	0.000000	0.000000	0.000000
2.608333	0.000000	0.000000	0.000000	-0.468052	0.000000	-0.089491	0.000000	0.000000	0.000000	0.000000	0.000000	0.000000	0.303620	0.000000	-0.226108	0.000000	0.000000	0.000000	0.000000	0.000000	0.000000	1.236217	0.000000	-0.458826	0.000000	0.000000	0.000000
2.609167	0.000000	0.000000	0.000000	-0.227029	0.000000	-0.393224	0.000000	0.000000	0.000000	0.000000	0.000000	0.000000	0.308722	0.000000	-0.286582	0.000000	0.000000	0.000000	0.000000	0.000000	0.000000	1.198790	0.000000	-0.487137	0.000000	0.000000	0.000000
2.610000	0.000000	0.000000	0.000000	-0.105888	0.000000	-0.416825	0.000000	0.000000	0.000000	0.000000	0.000000	0.000000	0.330058	0.000000	-0.455893	0.000000	0.000000	0.000000	0.000000	0.000000	0.000000	0.946492	0.000000	-0.403793	0.000000	0.000000	0.000000
2.610833	0.000000	0.000000	0.000000	-0.088852	0.000000	-0.278823	0.000000	0.000000	0.000000	0.000000	0.000000	0.000000	0.523778	-0.000000	0.042933	0.000000	0.000000	0.000000	0.000000	0.000000	0.000000	0.932327	0.000000	-0.406949	0.000000	0.000000	0.000000
2.611667	0.000000	0.000000	0.000000	0.387456	-0.000000	1.000195	0.000000	0.000000	0.000000	0.000000	0.000000	0.000000	0.232631	0.000000	-0.364247	0.000000	0.000000	0.000000	0.000000	0.000000	0.000000	-0.335424	0.000000	-1.710141	0.000000	0.000000	0.000000
2.612500	0.000000	0.000000	0.000000	-0.429974	0.000000	-0.308251	0.000000	0.000000	0.000000	0.000000	0.000000	0.000000	-3.060250	-0.000000	1.559458	0.000000	0.000000	0.000000	0.000000	0.000000	0.000000	1.119612	0.000000	-0.432232	0.000000	0.000000	0.000000
2.613333	0.000000	0.000000	0.000000	-0.515955	0.000000	-0.588634	0.000000	0.000000	0.000000	0.000000	0.000000	0.000000	0.159942	0.000000	-0.366305	0.000000	0.000000	0.000000	0.000000	0.000000	0.000000	1.135016	0.000000	-0.491091	0.000000	0.000000	0.000000
2.614167	0.000000	0.000000	0.000000	-0.421141	0.000000	-0.500387	0.000000	0.000000	0.000000	0.000000	0.000000	0.000000	-6.953189	0.000000	-6.000486	0.000000	0.000000	0.000000	0.000000	0.000000	0.000000	1.161011	0.000000	-0.477480	0.000000	0.000000	0.000000
2.615000	0.000000	0.000000	0.000000	-0.044030	0.000000	-0.277119	0.000000	0.000000	0.000000	0.000000	0.000000	0.000000	0.138155	0.000000	-0.734120	0.000000	0.000000	0.000000	0.000000	0.000000	0.000000	0.989449	0.000000	-0.427016	0.000000	0.000000	0.000000
2.615833	0.000000	0.000000	0.000000	0.127112	-0.000000	0.070938	0.000000	0.000000	0.000000	0.000000	0.000000	0.000000	0.129432	0.000000	-0.132153	0.000000	0.000000	0.000000	0.000000	0.000000	0.000000	0.921715	0.000000	-0.430630	0.000000	0.000000	0.000000
2.616667	0.000000	0.000000	0.000000	-0.395723	0.000000	-0.523010	0.000000	0.000000	0.000000	0.000000	0.000000	0.000000	0.480401	0.000000	-0.190077	0.000000	0.000000	0.000000	0.000000	0.000000	0.000000	1.579483	0.000000	-0.531935	0.000000	0.000000	0.000000
2.617500	0.000000	0.000000	0.000000	-0.010044	-0.000000	0.220088	0.000000	0.000000	0.000000	0.000000	0.000000	0.000000	0.291784	0.000000	-0.262547	0.000000	0.000000	0.000000	0.000000	0.000000	0.000000	1.268736	0.000000	-0.663563	0.000000	0.000000	0.000000
2.618333	0.000000	0.000000	0.000000	-0.229508	0.000000	-0.396884	0.000000	0.000000	0.000000	0.000000	0.000000	0.000000	0.091380	0.000000	-0.285503	0.000000	0.000000	0.000000	0.000000	0.000000	0.000000	0.254046	0.000000	-0.473100	0.000000	0.000000	0.000000
2.619167	0.000000	0.000000	0.000000	-3.737164	-0.000000	3.231777	0.000000	0.000000	0.000000	0.000000	0.000000	0.000000	0.237843	0.000000	-0.282832	0.000000	0.000000	0.000000	0.000000	0.000000	0.000000	0.975566	0.000000	-0.306802	0.000000	0.000000	0.000000
2.620000	0.000000	0.000000	0.000000	-0.343031	0.000000	-0.370179	0.000000	0.000000	0.000000	0.000000	0.000000	0.000000	0.248215	0.000000	-0.106006	0.000000	0.000000	0.000000	0.000000	0.000000	0.000000	0.635769	0.000000	-0.174579	0.000000	0.000000	0.000000
2.620833	0.000000	0.000000	0.000000	-0.228749	0.000000	-0.714193	0.000000	0.000000	0.000000	0.000000	0.000000	0.000000	0.278283	0.000000	-0.425542	0.000000	0.000000	0.000000	0.000000	0.000000	0.000000	0.998067	0.000000	-0.278467	0.000000	0.000000	0.000000
2.621667	0.000000	0.000000	0.000000	-0.278524	0.000000	-0.435173	0.000000	0.000000	0.000000	0.000000	0.000000	0.000000	0.557904	0.000000	-0.411522	0.000000	0.000000	0.000000	0.000000	0.000000	0.000000	0.887811	0.000000	-0.359371	0.000000	0.000000	0.000000
2.622500	0.000000	0.000000	0.000000	-0.089017	0.000000	-0.284350	0.000000	0.000000	0.000000	0.000000	0.000000	0.000000	-1.304344	0.000000	-0.624622	0.000000	0.000000	0.000000	0.000000	0.000000	0.000000	1.055920	0.000000	-0.509385	0.000000	0.000000	0.000000
2.623333	0.000000	0.000000	0.000000	-0.216207	0.000000	-0.305414	0.000000	0.000000	0.000000	0.000000	0.000000	0.000000	0.243179	0.000000	-0.455391	0.000000	0.000000	0.000000	0.000000	0.000000	0.000000	0.792615	-0.000000	0.071568	0.000000	0.000000	0.000000
2.624167	0.000000	0.000000	0.000000	0.054859	0.000000	-0.621249	0.000000	0.000000	0.000000	0.000000	0.000000	0.000000	0.214851	-0.000000	0.402222	0.000000	0.000000	0.000000	0.000000	0.000000	0.000000	0.921457	0.000000	-0.490246	0.000000	0.000000	0.000000
2.625000	0.000000	0.000000	0.000000	-0.176998	0.000000	-0.214920	0.000000	0.000000	0.000000	0.000000	0.000000	0.000000	0.307652	0.000000	-0.168246	0.000000	0.000000	0.000000	0.000000	0.000000	0.000000	1.238462	0.000000	-0.426560	0.000000	0.000000	0.000000
2.625833	0.000000	0.000000	0.000000	-0.567222	0.000000	-0.742456	0.000000	0.000000	0.000000	0.000000	0.000000	0.000000	0.158755	0.000000	-0.265847	0.000000	0.000000	0.000000	0.000000	0.000000	0.000000	0.761569	0.000000	-0.328390	0.000000	0.000000	0.000000
2.626667	0.000000	0.000000	0.000000	-0.283325	0.000000	-0.501263	0.000000	0.000000	0.000000	0.000000	0.000000	0.000000	0.011317	0.000000	-1.059117	0.000000	0.000000	0.000000	0.000000	0.000000	0.000000	1.056000	0.000000	-0.392029	0.000000	0.000000	0.000000
2.627500	0.000000	0.000000	0.000000	-0.228682	0.000000	-0.449915	0.000000	0.000000	0.000000	0.000000	0.000000	0.000000	0.283387	0.000000	-0.098429	0.000000	0.000000	0.000000	0.000000	0.000000	0.000000	0.938944	0.000000	-0.375563	0.000000	0.000000	0.000000
2.628333	0.000000	0.000000	0.000000	-0.333939	0.000000	-0.533521	0.000000	0.000000	0.000000	0.000000	0.000000	0.000000	0.166613	0.000000	-0.160991	0.000000	0.000000	0.000000	0.000000	0.000000	0.000000	1.179536	0.000000	-0.417886	0.000000	0.000000	0.000000
2.629167	0.000000	0.000000	0.000000	-0.275410	-0.000000	1.072149	0.000000	0.000000	0.000000	0.000000	0.000000	0.000000	-0.978011	0.000000	-0.436912	0.000000	0.000000	0.000000	0.000000	0.000000	0.000000	0.904398	0.000000	-0.601679	0.000000	0.000000	0.000000
2.630000	0.000000	0.000000	0.000000	0.910726	0.000000	-0.487418	0.000000	0.000000	0.000000	0.000000	0.000000	0.000000	1.484154	0.000000	-0.215967	0.000000	0.000000	0.000000	0.000000	0.000000	0.000000	1.472177	0.000000	-0.174796	0.000000	0.000000	0.000000
2.630833	0.000000	0.000000	0.000000	-0.705542	0.000000	-1.064126	0.000000	0.000000	0.000000	0.000000	0.000000	0.000000	0.337299	0.000000	-0.419223	0.000000	0.000000	0.000000	0.000000	0.000000	0.000000	0.939523	0.000000	-0.280150	0.000000	0.000000	0.000000
2.631667	0.000000	0.000000	0.000000	-0.194951	0.000000	-0.533994	0.000000	0.000000	0.000000	0.000000	0.000000	0.000000	-0.069296	0.000000	-1.594575	0.000000	0.000000	0.000000	0.000000	0.000000	0.000000	1.006579	-0.000000	0.114582	0.000000	0.000000	0.000000
2.632500	0.000000	0.000000	0.000000	-0.407170	0.000000	-1.692423	0.000000	0.000000	0.000000	0.000000	0.000000	0.000000	0.306665	0.000000	-0.307157	0.000000	0.000000	0.000000	0.000000	0.000000	0.000000	0.827420	-0.000000	0.019279	0.000000	0.000000	0.000000
2.633333	0.000000	0.000000	0.000000	-0.003413	0.000000	-0.188790	0.000000	0.000000	0.000000	0.000000	0.000000	0.000000	-0.229045	0.000000	-0.035871	0.000000	0.000000	0.000000	0.000000	0.000000	0.000000	0.986289	0.000000	-0.366911	0.000000	0.000000	0.000000
2.634167	0.000000	0.000000	0.000000	17.076658	-0.000000	17.165019	0.000000	0.000000	0.000000	0.000000	0.000000	0.000000	4.498832	0.000000	-5.024424	0.000000	0.000000	0.000000	0.000000	0.000000	0.000000	1.118476	0.000000	-0.425072	0.000000	0.000000	0.000000
2.635000	0.000000	0.000000	0.000000	-0.109215	0.000000	-0.266724	0.000000	0.000000	0.000000	0.000000	0.000000	0.000000	-0.837820	-0.000000	0.069501	0.000000	0.000000	0.000000	0.000000	0.000000	0.000000	0.782530	0.000000	-0.380046	0.000000	0.000000	0.000000
2.635833	0.000000	0.000000	0.000000	4.529929	-0.000000	2.403027	0.000000	0.000000	0.000000	0.000000	0.000000	0.000000	0.325700	-0.000000	0.001037	0.000000	0.000000	0.000000	0.000000	0.000000	0.000000	0.982619	-0.000000	0.097208	0.000000	0.000000	0.000000
2.636667	0.000000	0.000000	0.000000	-0.299328	0.000000	-0.712359	0.000000	0.000000	0.000000	0.000000	0.000000	0.000000	4.356813	0.000000	-1.398284	0.000000	0.000000	0.000000	0.000000	0.000000	0.000000	1.057651	0.000000	-0.470658	0.000000	0.000000	0.000000
2.637500	0.000000	0.000000	0.000000	-0.376188	0.000000	-0.378362	0.000000	0.000000	0.000000	0.000000	0.000000	0.000000	-1.873150	-0.000000	1.543773	0.000000	0.000000	0.000000	0.000000	0.000000	0.000000	7.570617	0.000000	-0.616391	0.000000	0.000000	0.000000
2.638333	0.000000	0.000000	0.000000	-0.251190	0.000000	-0.385383	0.000000	0.000000	0.000000	0.000000	0.000000	0.000000	0.201166	0.000000	-0.222108	0.000000	0.000000	0.000000	0.000000	0.000000	0.000000	0.587515	-0.000000	0.301955	0.000000	0.000000	0.000000
2.639167	0.000000	0.000000	0.000000	-0.305535	0.000000	-0.338285	0.000000	0.000000	0.000000	0.000000	0.000000	0.000000	0.326040	-0.000000	0.423410	0.000000	0.000000	0.000000	0.000000	0.000000	0.000000	1.181148	0.000000	-0.411649	0.000000	0.000000	0.000000
2.640000	0.000000	0.000000	0.000000	-0.306385	0.000000	-0.428585	0.000000	0.000000	0.000000	0.000000	0.000000	0.000000	-0.445604	0.000000	-2.321142	0.000000	0.000000	0.000000	0.000000	0.000000	0.000000	1.561195	0.000000	-1.229126	0.000000	0.000000	0.000000
